<?xml version="1.0" encoding="utf-8"?><svg xml:space="preserve" viewBox="0 0 100 100" y="0" x="0" xmlns="http://www.w3.org/2000/svg" id="圖層_1" version="1.1" width="200px" height="200px" xmlns:xlink="http://www.w3.org/1999/xlink" style="width:100%;height:100%;background-size:initial;background-repeat-y:initial;background-repeat-x:initial;background-position-y:initial;background-position-x:initial;background-origin:initial;background-color:initial;background-clip:initial;background-attachment:initial;animation-play-state:paused" ><g class="ldl-scale" style="transform-origin:50% 50%;transform:rotate(0deg) scale(0.8, 0.8);animation-play-state:paused" ><path stroke-linecap="round" fill="none" stroke-miterlimit="10" stroke-width="3.5" stroke="#333" d="M61.665 64.258c1.562-4.236 3.919-8.161 7.053-11.501a25.547 25.547 0 0 0 6.938-17.539c0-14.712-12.384-26.532-27.296-25.604-12.794.796-23.198 11.224-23.967 24.02a25.565 25.565 0 0 0 6.62 18.831c3.168 3.483 5.662 7.477 7.315 11.784" style="stroke:rgb(10, 10, 10);animation-play-state:paused" ></path>
<path d="M36.333 69.646h27.334" stroke-linecap="round" fill="none" stroke-miterlimit="10" stroke-width="3.5" stroke="#333" style="stroke:rgb(10, 10, 10);animation-play-state:paused" ></path>
<path d="M36.333 75.646h27.334" stroke-linecap="round" fill="none" stroke-miterlimit="10" stroke-width="3.5" stroke="#333" style="stroke:rgb(10, 10, 10);animation-play-state:paused" ></path>
<path d="M36.333 81.646h27.334" stroke-linecap="round" fill="none" stroke-miterlimit="10" stroke-width="3.5" stroke="#333" style="stroke:rgb(10, 10, 10);animation-play-state:paused" ></path>
<path stroke-linecap="round" fill="none" stroke-miterlimit="10" stroke-width="3.5" stroke="#333" d="M58.687 86.813h0a3.625 3.625 0 0 1-3.625 3.625H44.937a3.625 3.625 0 0 1-3.625-3.625v0" style="stroke:rgb(10, 10, 10);animation-play-state:paused" ></path>
<metadata xmlns:d="https://loading.io/stock/" style="animation-play-state:paused" ><d:name style="animation-play-state:paused" >bulb</d:name>


<d:tags style="animation-play-state:paused" >bulb,light,creative,creativity,idea,brainstorm,bright,luminance,think,smart,thought</d:tags>


<d:license style="animation-play-state:paused" >by</d:license>


<d:slug style="animation-play-state:paused" >pk7uk8</d:slug></metadata></g><!-- generated by https://loading.io/ --></svg>