<svg version="1.1" xmlns="http://www.w3.org/2000/svg" xmlns:xlink="http://www.w3.org/1999/xlink" width="624.000000pt" height="720.000000pt" viewBox="0,0,221.85938,256"><g fill="#15ac1f" fill-rule="nonzero" stroke="none" stroke-width="1" stroke-linecap="butt" stroke-linejoin="miter" stroke-miterlimit="10" stroke-dasharray="" stroke-dashoffset="0" font-family="none" font-weight="none" font-size="none" text-anchor="none" style="mix-blend-mode: normal"><g transform="translate(-2.13244,-2.43358) scale(0.35556,0.35556)"><g transform="translate(0,720) scale(0.1,-0.1)"><path d="M1800,6719c-77,-13 -239,-95 -345,-176c-49,-37 -151,-128 -226,-203c-206,-205 -331,-377 -439,-602c-121,-254 -169,-454 -177,-749c-8,-273 11,-446 82,-737c152,-627 564,-1491 1078,-2262c271,-407 471,-655 751,-936c502,-501 960,-716 1526,-716c201,0 326,16 538,68c381,94 630,227 717,385c26,47 30,64 30,129c-1,97 -29,159 -167,364c-202,301 -353,499 -563,741c-251,289 -340,337 -490,267c-74,-35 -149,-97 -331,-272c-153,-147 -216,-189 -298,-197c-101,-10 -193,50 -375,247c-509,553 -1036,1476 -1236,2165c-52,180 -62,254 -45,326c15,60 71,129 131,159c20,10 136,48 257,84c261,77 334,108 400,170c76,71 89,142 52,291c-23,96 -111,359 -176,522c-90,228 -296,671 -357,766c-90,140 -193,191 -337,166z"></path><path d="M3530,6178c-108,-31 -160,-149 -110,-247c27,-54 54,-72 167,-117c439,-172 859,-482 1169,-865c331,-407 545,-906 621,-1449c24,-171 24,-555 0,-727c-27,-196 -22,-232 43,-287c64,-54 149,-56 219,-6c48,35 65,79 87,220c21,143 30,570 15,726c-64,636 -292,1213 -678,1709c-339,435 -827,802 -1343,1008c-102,41 -144,48 -190,35z"></path><path d="M3355,5501c-97,-24 -150,-112 -131,-215c12,-62 49,-93 205,-167c80,-38 179,-90 221,-116c200,-123 419,-315 561,-490c333,-413 510,-951 483,-1468c-14,-283 -13,-306 19,-348c36,-48 79,-69 137,-69c94,0 159,56 180,157c6,28 14,158 17,290c6,264 -5,387 -53,605c-74,335 -240,700 -442,970c-260,349 -609,629 -1000,804c-106,47 -151,58 -197,47z"></path><path d="M3135,4804c-80,-41 -115,-117 -94,-199c18,-65 44,-91 147,-145c258,-135 470,-337 610,-580c143,-251 206,-499 200,-800c-2,-164 5,-188 69,-237c31,-24 46,-28 103,-28c57,0 72,4 103,28c69,52 72,66 72,302c0,236 -13,328 -71,522c-142,473 -474,874 -911,1100c-113,58 -170,68 -228,37z"></path></g></g></g></svg>