<svg version="1.1" xmlns="http://www.w3.org/2000/svg" xmlns:xlink="http://www.w3.org/1999/xlink" width="1600" height="1600" viewBox="0,0,256,256"><g fill="none" fill-rule="evenodd" stroke="none" stroke-width="1" stroke-linecap="butt" stroke-linejoin="miter" stroke-miterlimit="10" stroke-dasharray="" stroke-dashoffset="0" font-family="none" font-weight="none" font-size="none" text-anchor="none" style="mix-blend-mode: normal"><g transform="translate(0,0)"><g><g transform="scale(0.16,0.16)"><g><path d="M1600,800c0,-441.82812 -358.17188,-800 -800,-800c-441.82812,0 -800,358.17188 -800,800c0,399.30313 292.54844,730.26563 675,790.28125v-559.03125h-203.125v-231.25h203.125v-176.25c0,-200.5 119.43438,-311.25 302.17188,-311.25c87.52657,0 179.07813,15.625 179.07813,15.625v196.875h-100.87812c-99.37969,0 -130.37188,61.66719 -130.37188,124.93281v150.06719h221.875l-35.46875,231.25h-186.40625v559.03125c382.45156,-60.01562 675,-390.97812 675,-790.28125" fill="#15ac1f"></path><path d="M1146.875,800h-221.875v-150.06719c0,-63.26562 30.99219,-124.93281 130.37187,-124.93281h100.87813v-196.875c0,0 -91.55156,-15.625 -179.07812,-15.625c-182.7375,0 -302.17187,110.75 -302.17187,311.25v176.25h-203.125v231.25h203.125v559.03125c40.72969,6.39063 82.475,9.71875 125,9.71875c42.525,0 84.27031,-3.32812 125,-9.71875v-559.03125h186.40625z" fill="#ffffff"></path></g></g></g></g></g></svg>