<svg version="1.1" xmlns="http://www.w3.org/2000/svg" xmlns:xlink="http://www.w3.org/1999/xlink" width="256px" height="256px" viewBox="0,0,256,256"><g fill="#15ac1f" fill-rule="nonzero" stroke="none" stroke-width="1" stroke-linecap="butt" stroke-linejoin="miter" stroke-miterlimit="10" stroke-dasharray="" stroke-dashoffset="0" font-family="none" font-weight="none" font-size="none" text-anchor="none" style="mix-blend-mode: normal"><g><g><path d="M127.99975,23.06353c34.17764,0 38.22565,0.13007 51.72273,0.74589c12.47987,0.56958 19.25738,2.65481 23.76826,4.40723c5.9742,2.322 10.23866,5.09621 14.71753,9.57508c4.47887,4.47887 7.25308,8.74333 9.57458,14.71753c1.75293,4.51088 3.83816,11.28839 4.40774,23.76775c0.61581,13.49759 0.74589,17.5456 0.74589,51.72324c0,34.17764 -0.13007,38.22565 -0.74589,51.72273c-0.56958,12.47987 -2.65481,19.25738 -4.40774,23.76826c-2.32149,5.9742 -5.0957,10.23866 -9.57458,14.71753c-4.47887,4.47887 -8.74333,7.25308 -14.71753,9.57458c-4.51088,1.75293 -11.28839,3.83816 -23.76826,4.40774c-13.49505,0.61581 -17.54306,0.74589 -51.72273,0.74589c-34.17967,0 -38.22768,-0.13007 -51.72273,-0.74589c-12.47987,-0.56958 -19.25738,-2.65481 -23.76775,-4.40774c-5.97471,-2.32149 -10.23917,-5.0957 -14.71804,-9.57458c-4.47887,-4.47887 -7.25308,-8.74333 -9.57458,-14.71753c-1.75293,-4.51088 -3.83816,-11.28839 -4.40774,-23.76775c-0.61581,-13.49759 -0.74589,-17.5456 -0.74589,-51.72324c0,-34.17764 0.13007,-38.22565 0.74589,-51.72273c0.56958,-12.47987 2.65481,-19.25738 4.40774,-23.76826c2.32149,-5.9742 5.0957,-10.23866 9.57458,-14.71753c4.47887,-4.47887 8.74333,-7.25308 14.71804,-9.57508c4.51038,-1.75243 11.28788,-3.83766 23.76724,-4.40723c13.49759,-0.61581 17.5456,-0.74589 51.72324,-0.74589M127.99975,0c-34.76297,0 -39.12142,0.14735 -52.77398,0.77027c-13.62462,0.62191 -22.92888,2.78539 -31.07114,5.94981c-8.41713,3.27113 -15.55538,7.64787 -22.67128,14.76377c-7.1159,7.1159 -11.49264,14.25415 -14.76377,22.67128c-3.16443,8.14225 -5.3279,17.44652 -5.94981,31.07114c-0.62293,13.65205 -0.76977,18.01102 -0.76977,52.77398c0,34.76297 0.14684,39.12193 0.76977,52.77398c0.62191,13.62462 2.78539,22.92889 5.94981,31.07114c3.27113,8.41662 7.64787,15.55538 14.76377,22.67128c7.1159,7.1159 14.25415,11.49264 22.67128,14.76377c8.14225,3.16443 17.44652,5.3279 31.07114,5.94981c13.65256,0.62293 18.01102,0.76977 52.77398,0.76977c34.76297,0 39.12193,-0.14684 52.77398,-0.76977c13.62462,-0.62191 22.92889,-2.78539 31.07114,-5.94981c8.41713,-3.27113 15.55538,-7.64787 22.67128,-14.76377c7.1159,-7.1159 11.49264,-14.25415 14.76377,-22.67128c3.16443,-8.14225 5.3279,-17.44652 5.94981,-31.07114c0.62293,-13.65205 0.77027,-18.01102 0.77027,-52.77398c0,-34.76297 -0.14735,-39.12193 -0.77027,-52.77398c-0.62191,-13.62462 -2.78539,-22.92888 -5.94981,-31.07114c-3.27113,-8.41713 -7.64787,-15.55538 -14.76377,-22.67128c-7.1159,-7.1159 -14.25415,-11.49264 -22.67128,-14.76377c-8.14225,-3.16443 -17.44652,-5.3279 -31.07114,-5.94981c-13.65205,-0.62293 -18.01102,-0.77027 -52.77398,-0.77027zM127.99975,62.27031c-36.30148,0 -65.72994,29.42846 -65.72994,65.72994c0,36.30148 29.42846,65.72994 65.72994,65.72994c36.30148,0 65.72994,-29.42846 65.72994,-65.72994c0,-36.30148 -29.42846,-65.72994 -65.72994,-65.72994zM127.99975,170.66718c-23.56401,0 -42.66692,-19.10292 -42.66692,-42.66692c0,-23.56401 19.10292,-42.66692 42.66692,-42.66692c23.564,0 42.66692,19.10292 42.66692,42.66692c0,23.564 -19.10292,42.66692 -42.66692,42.66692zM211.68634,59.67343c0,8.48318 -6.87658,15.36027 -15.35977,15.36027c-8.48318,0 -15.36027,-6.87709 -15.36027,-15.36027c0,-8.48318 6.87709,-15.35977 15.36027,-15.35977c8.48318,0 15.35977,6.87658 15.35977,15.35977z"></path></g></g></g></svg>